<svg width="16" height="8" viewBox="0 0 16 8" fill="none" xmlns="http://www.w3.org/2000/svg">
<path d="M0 7.48697V6.08965H1.55003C2.66391 6.08965 3.2205 5.51436 3.2205 4.36446V1.94946L4.70181 1.15537V4.36446C4.70181 5.51436 5.26385 6.08965 6.38997 6.08965H7.18132C8.30676 6.08965 8.86948 5.51436 8.86948 4.36446V1.36259L10.3501 0.586218V4.36446C10.3501 5.51436 10.9074 6.08965 12.0213 6.08965H12.8303C13.9551 6.08965 14.5178 5.51436 14.5178 4.36446V0.793432L15.9998 2.14519e-05V4.41626C15.9998 5.39439 15.7065 6.15849 15.1213 6.7106C14.6042 7.21705 13.9156 7.47539 13.0542 7.48697H11.8661C10.8557 7.48697 10.1031 7.14821 9.6098 6.46931C9.1158 7.13594 8.38093 7.47539 7.40586 7.48697H6.21714C5.22983 7.48697 4.47795 7.14821 3.9615 6.46931C3.4675 7.14821 2.71494 7.48697 1.70517 7.48697H0Z" fill="#F8F8F8"/>
</svg>
