<svg width="47" height="10" viewBox="0 0 47 10" fill="none" xmlns="http://www.w3.org/2000/svg">
<path d="M31.3409 0.000317364V9.37609H30.0926V0.66908L31.3409 0.000317364Z" fill="#F8F8F8"/>
<path d="M5.09362 1.64277C4.43583 1.3133 3.77281 1.14889 3.10521 1.14889C2.63181 1.14889 2.24472 1.25762 1.94525 1.47574C1.64513 1.69386 1.49474 1.97224 1.49474 2.31153C1.49474 2.922 1.89621 3.37723 2.69916 3.67722C3.899 4.12328 4.75034 4.59161 5.25316 5.0809C5.75598 5.57019 6.00772 6.17345 6.00772 6.89069C6.00772 7.7625 5.67425 8.44633 5.00665 8.9402C4.4646 9.34696 3.79242 9.55067 2.98948 9.55067C2.03156 9.55067 1.03507 9.2212 0 8.56161L0.580633 7.73368C1.22861 8.13062 1.98318 8.32908 2.84432 8.32908C4.02455 8.32908 4.61499 7.83062 4.61499 6.83239C4.61499 6.05686 4.11609 5.50011 3.12025 5.16081C2.07537 4.80187 1.31819 4.40493 0.849372 3.9687C0.379896 3.53246 0.145812 3.00453 0.145812 2.38424C0.145812 1.64801 0.430244 1.05654 1.00172 0.611131C1.52416 0.203716 2.21072 9.58804e-06 3.06205 9.58804e-06C4.01931 9.58804e-06 4.89026 0.271836 5.67425 0.814183L5.09362 1.64277Z" fill="#F8F8F8"/>
<path d="M11.8121 6.04753H11.1733C9.68381 6.04753 8.93906 6.49359 8.93906 7.38505C8.93906 7.75317 9.0476 8.04399 9.26534 8.25687C9.48308 8.46975 9.77535 8.57651 10.1435 8.57651C10.511 8.57651 10.8542 8.48219 11.1733 8.29355C11.4931 8.10425 11.7056 7.86452 11.8121 7.5737V6.04753ZM13.0597 9.37628H12.0881L11.9423 8.6931C11.4198 9.26492 10.7143 9.55116 9.82374 9.55116C9.14699 9.55116 8.61278 9.36383 8.22046 8.99113C7.82879 8.61843 7.63263 8.11146 7.63263 7.47217C7.63263 6.74511 7.93014 6.18574 8.52516 5.79273C9.12018 5.40038 9.96432 5.20453 11.0576 5.20453H11.8265V5.13183C11.8265 4.12312 11.3185 3.62007 10.3024 3.62007C9.65504 3.62007 9.05022 3.82836 8.48854 4.24495L8.11192 3.57619C8.86648 2.92707 9.7322 2.60219 10.7091 2.60219C12.2764 2.60219 13.0597 3.53754 13.0597 5.40759V9.37628Z" fill="#F8F8F8"/>
<path d="M16.4988 0.000317364V3.50395C17.0408 2.90331 17.7228 2.60266 18.5447 2.60266C20.1604 2.60266 20.9679 3.55242 20.9679 5.45129V9.37609H19.7204V5.52465C19.7204 4.29389 19.1783 3.67753 18.0949 3.67753C17.7947 3.67753 17.4907 3.75089 17.1808 3.8963C16.8708 4.04171 16.6439 4.21595 16.4988 4.41965V9.37609H15.2505V0.66908L16.4988 0.000317364Z" fill="#F8F8F8"/>
<path d="M24.0737 5.52434H27.4836C27.464 4.89422 27.3071 4.40755 27.0122 4.06368C26.7166 3.71914 26.3178 3.54687 25.8149 3.54687C25.3311 3.54687 24.9316 3.727 24.6177 4.08529C24.3032 4.44423 24.1214 4.9237 24.0737 5.52434ZM28.7606 6.49768H24.1169C24.1842 7.13763 24.417 7.64395 24.8132 8.0173C25.2101 8.39 25.7182 8.57668 26.3374 8.57668C26.937 8.57668 27.5464 8.39262 28.1656 8.02385L28.5429 8.7365C27.8655 9.2795 27.0625 9.55067 26.134 9.55067C25.0695 9.55067 24.2234 9.21662 23.5951 8.54786C23.0144 7.92756 22.7241 7.11339 22.7241 6.10599C22.7241 5.07828 23.0386 4.22088 23.667 3.53246C24.2378 2.91283 24.9388 2.60235 25.7718 2.60235C26.7866 2.60235 27.5653 2.98553 28.1074 3.75058C28.5429 4.36105 28.7606 5.13134 28.7606 6.06145V6.49768Z" fill="#F8F8F8"/>
<path d="M35.43 3.06817e-05V3.52929C35.9475 2.92426 36.5986 2.62141 37.3832 2.62141C38.9257 2.62141 39.6966 3.57812 39.6966 5.49088V9.44439H38.5056V5.56477C38.5056 4.32501 37.9881 3.70414 36.9538 3.70414C36.6672 3.70414 36.377 3.77804 36.0811 3.92451C35.7852 4.07099 35.5686 4.2465 35.43 4.45169V9.44439H34.2384V0.673685L35.43 3.06817e-05Z" fill="#F8F8F8"/>
<path d="M45.7525 6.04753H45.1137C43.6235 6.04753 42.8788 6.49359 42.8788 7.38505C42.8788 7.75317 42.988 8.04399 43.2057 8.25687C43.4228 8.46975 43.7157 8.57651 44.0839 8.57651C44.4513 8.57651 44.7946 8.48219 45.1137 8.29355C45.4328 8.10425 45.6459 7.86452 45.7525 7.5737V6.04753ZM47.0001 9.37628H46.0278L45.8826 8.6931C45.3602 9.26492 44.654 9.55116 43.7641 9.55116C43.0867 9.55116 42.5525 9.36383 42.1608 8.99113C41.7692 8.61843 41.573 8.11146 41.573 7.47217C41.573 6.74511 41.8705 6.18574 42.4655 5.79273C43.0606 5.40038 43.9047 5.20453 44.998 5.20453H45.7669V5.13183C45.7669 4.12312 45.2589 3.62007 44.2428 3.62007C43.5948 3.62007 42.9899 3.82836 42.4289 4.24495L42.0516 3.57619C42.8062 2.92707 43.6719 2.60219 44.6495 2.60219C46.2161 2.60219 47.0001 3.53754 47.0001 5.40759V9.37628Z" fill="#F8F8F8"/>
</svg>
