<svg width="17" height="17" viewBox="0 0 17 17" fill="none" xmlns="http://www.w3.org/2000/svg">
<g clip-path="url(#clip0_1081_1952)">
<path d="M7.89087 0.820839C9.28929 0.820839 10.6563 1.23552 11.8191 2.01244C12.9818 2.78937 13.8881 3.89364 14.4232 5.18561C14.9584 6.47759 15.0984 7.89924 14.8256 9.2708C14.5527 10.6424 13.8793 11.9022 12.8905 12.891C11.9017 13.8799 10.6418 14.5533 9.27026 14.8261C7.89871 15.0989 6.47705 14.9589 5.18508 14.4237C3.8931 13.8886 2.78883 12.9823 2.01191 11.8196C1.23498 10.6568 0.820303 9.28983 0.820303 7.8914C0.820303 6.01617 1.56524 4.21775 2.89122 2.89176C4.21721 1.56577 6.01564 0.820839 7.89087 0.820839Z" stroke="#DA3A2A" stroke-width="1.59048" stroke-miterlimit="10" stroke-linecap="round" stroke-linejoin="round"/>
<path d="M15.0133 13.8478C15.2439 13.8478 15.4693 13.9161 15.661 14.0443C15.8527 14.1724 16.0021 14.3545 16.0903 14.5676C16.1785 14.7806 16.2015 15.0151 16.1565 15.2412C16.1114 15.4674 16.0003 15.6751 15.8371 15.838C15.674 16.001 15.4662 16.112 15.24 16.1568C15.0138 16.2017 14.7794 16.1784 14.5664 16.09C14.3535 16.0016 14.1715 15.8521 14.0435 15.6602C13.9156 15.4684 13.8474 15.2429 13.8476 15.0123C13.8479 14.7034 13.9709 14.4071 14.1894 14.1888C14.408 13.9704 14.7043 13.8478 15.0133 13.8478Z" stroke="#DA3A2A" stroke-width="1.59048" stroke-miterlimit="10" stroke-linecap="round" stroke-linejoin="round"/>
</g>
<defs>
<clipPath id="clip0_1081_1952">
<rect width="16.4679" height="16.4689" fill="white" transform="scale(1.03225)"/>
</clipPath>
</defs>
</svg>
