<svg width="21" height="21" viewBox="0 0 21 21" fill="none" xmlns="http://www.w3.org/2000/svg">
<g clip-path="url(#clip0_1081_2722)">
<path d="M9.7483 1.01408C11.4758 1.01408 13.1644 1.52633 14.6008 2.48606C16.0371 3.44579 17.1566 4.80989 17.8177 6.40586C18.4788 8.00183 18.6517 9.75799 18.3147 11.4523C17.9777 13.1465 17.1458 14.7028 15.9243 15.9243C14.7028 17.1458 13.1465 17.9777 11.4523 18.3147C9.75799 18.6517 8.00183 18.4788 6.40586 17.8177C4.80989 17.1566 3.44579 16.0371 2.48606 14.6008C1.52633 13.1644 1.01408 11.4758 1.01408 9.7483C1.01408 7.43184 1.93429 5.21026 3.57227 3.57227C5.21026 1.93429 7.43184 1.01408 9.7483 1.01408Z" stroke="#DA3A2A" stroke-width="1.95305" stroke-miterlimit="10" stroke-linecap="round" stroke-linejoin="round"/>
<path d="M18.5466 17.1063C18.8315 17.1063 19.1099 17.1907 19.3468 17.349C19.5836 17.5073 19.7681 17.7323 19.8771 17.9955C19.986 18.2587 20.0145 18.5483 19.9588 18.8276C19.9031 19.107 19.7659 19.3635 19.5643 19.5649C19.3628 19.7662 19.1061 19.9032 18.8267 19.9586C18.5473 20.014 18.2578 19.9853 17.9947 19.8761C17.7316 19.7669 17.5068 19.5822 17.3487 19.3452C17.1907 19.1082 17.1064 18.8297 17.1067 18.5448C17.1071 18.1632 17.2589 17.7973 17.5289 17.5275C17.7989 17.2578 18.165 17.1063 18.5466 17.1063Z" stroke="#DA3A2A" stroke-width="1.95305" stroke-miterlimit="10" stroke-linecap="round" stroke-linejoin="round"/>
</g>
<defs>
<clipPath id="clip0_1081_2722">
<rect width="20.2218" height="20.2231" fill="white" transform="scale(1.03841)"/>
</clipPath>
</defs>
</svg>
