<svg width="13" height="8" viewBox="0 0 13 8" fill="none" xmlns="http://www.w3.org/2000/svg">
<path d="M6.78084 6.6416C7.32722 6.6416 7.7208 6.50443 7.96158 6.23076C8.20104 5.95643 8.32076 5.51247 8.32076 4.89688V4.1428C8.32076 3.21445 8.02508 2.4935 7.43372 1.9793C6.95415 1.55455 6.37932 1.34184 5.70924 1.34184C4.93861 1.34184 4.33667 1.59364 3.90075 2.09658H3.95102C4.68791 2.09658 5.27663 2.33447 5.71784 2.80958C6.15838 3.28469 6.37932 3.91353 6.37932 4.69544C6.37932 5.44488 6.16103 6.0936 5.72578 6.6416H6.78084ZM3.95102 6.49052C4.86651 6.17775 5.32426 5.5509 5.32426 4.61195C5.32426 4.1428 5.19858 3.7651 4.94787 3.48017C4.69651 3.19523 4.36445 3.05277 3.95102 3.05277C3.53826 3.05277 3.2062 3.19523 2.9555 3.48017C2.70413 3.7651 2.57845 4.1428 2.57845 4.61195C2.57845 5.5509 3.0362 6.17775 3.95102 6.49052ZM11.4013 6.6416H12.5066V8H11.2339C10.2966 8 9.57096 7.7091 9.05765 7.12797C8.51061 7.7091 7.76843 8 6.83111 8H5.02328C4.64359 8 4.28639 7.94434 3.95102 7.83235C3.60573 7.94434 3.24853 8 2.88009 8H0V6.6416H2.15973C1.73573 6.07173 1.52405 5.42301 1.52405 4.69544C1.52405 4.03612 1.68545 3.47752 2.00958 3.01897C2.28806 1.9899 2.81857 1.20203 3.59978 0.654028C4.23612 0.218677 4.95581 7.75976e-06 5.75951 7.75976e-06C6.94224 7.75976e-06 7.91925 0.402227 8.68987 1.20799C9.41485 1.96803 9.77734 2.94675 9.77734 4.1428V4.96447C9.77734 6.08233 10.3191 6.6416 11.4013 6.6416Z" fill="#F8F8F8"/>
</svg>
