<svg width="42" height="42" viewBox="0 0 42 42" fill="none" xmlns="http://www.w3.org/2000/svg">
<path d="M17.9222 13.6928C15.3513 16.269 11.9262 17.688 8.28007 17.688C7.56542 17.688 6.84596 17.631 6.14172 17.5202L4.25014 17.2217L5.86852 11.1839L7.35631 11.3709C7.66076 11.4086 7.97402 11.4287 8.28167 11.4287C10.2582 11.4287 12.1113 10.6614 13.5038 9.26655C15.1245 7.64294 15.8897 5.39813 15.6044 3.10838L15.4178 1.618L21.4426 0L21.7399 1.89328C22.4201 6.20713 20.9916 10.6181 17.9222 13.6928Z" fill="#F8F8F8"/>
<path d="M17.4881 35.8475L17.1901 37.74L11.1644 36.1212L11.3495 34.6308C11.6363 32.341 10.8696 30.097 9.2488 28.4734C7.85796 27.0785 6.00403 26.3105 4.02913 26.3105C3.71907 26.3105 3.40821 26.3305 3.10136 26.3683L1.61357 26.5537L0 20.5183L1.88838 20.2205C2.59421 20.1098 3.31367 20.0536 4.02913 20.0536C7.67449 20.0536 11.0979 21.4709 13.6673 24.0464C16.7382 27.1227 18.1667 31.5336 17.4881 35.8475Z" fill="#F8F8F8"/>
<path d="M37.6734 24.7791L36.0566 30.8153L34.5688 30.6291C34.2628 30.5906 33.9511 30.5713 33.6418 30.5713C31.6669 30.5713 29.8138 31.3394 28.4222 32.7334C26.8006 34.3579 26.0338 36.6011 26.3207 38.8916L26.5073 40.3828L20.4825 42L20.1836 40.1067C19.5058 35.7945 20.9319 31.3835 24.0029 28.3072C26.5738 25.7318 29.9989 24.3128 33.645 24.3128C34.3581 24.3128 35.0792 24.3682 35.7834 24.4814L37.6734 24.7791Z" fill="#F8F8F8"/>
<path d="M41.9249 21.481L40.0358 21.7787C39.3307 21.8919 38.6113 21.9481 37.8966 21.9481C34.2505 21.9481 30.8278 20.5291 28.256 17.9545C25.1851 14.8782 23.7574 10.4656 24.4368 6.15337L24.7349 4.25929L30.7605 5.88049L30.5747 7.37008C30.2886 9.65983 31.0538 11.9046 32.6753 13.5291C34.067 14.9231 35.9217 15.6904 37.8966 15.6904C38.2043 15.6904 38.5175 15.6711 38.8236 15.6334L40.3114 15.4456L41.9249 21.481Z" fill="#F8F8F8"/>
</svg>
